<svg xmlns="http://www.w3.org/2000/svg" width="48" height="39.012" viewBox="0 0 48 39.012">
  <path id="twitter" d="M47.906,6.892a20,20,0,0,1-5.65,1.55A9.916,9.916,0,0,0,46.582,3a20.325,20.325,0,0,1-6.254,2.368A9.837,9.837,0,0,0,23.307,12.08a10.069,10.069,0,0,0,.254,2.248A27.868,27.868,0,0,1,3.28,4.076a9.643,9.643,0,0,0-1.332,4.95,9.841,9.841,0,0,0,4.376,8.192,9.808,9.808,0,0,1-4.456-1.232v.122A9.845,9.845,0,0,0,9.76,25.761a9.93,9.93,0,0,1-4.424.17,9.873,9.873,0,0,0,9.208,6.834,19.735,19.735,0,0,1-12.2,4.21A20.886,20.886,0,0,1,0,36.841a27.99,27.99,0,0,0,15.113,4.418c18.107,0,28-14.991,28-27.971,0-.418,0-.84-.03-1.26A19.871,19.871,0,0,0,48,6.932l-.094-.04Z" transform="translate(0 -2.246)" fill="#d8dee9"/>
</svg>
